<svg width="800" height="800" viewBox="0 0 800 800" fill="none" xmlns="http://www.w3.org/2000/svg">
<circle cx="400" cy="400" r="400" fill="white"/>
<circle cx="400" cy="400" r="365" fill="#0A0A0A"/>
<path d="M630.747 603.221L495.029 467.503C520.771 435.723 536.266 395.322 536.266 351.334C536.266 249.362 453.305 166.4 351.333 166.4C249.361 166.4 166.4 249.362 166.4 351.334C166.4 453.306 249.362 536.267 351.334 536.267C395.322 536.267 435.723 520.771 467.503 495.031L603.221 630.748C607.023 634.549 613.185 634.549 616.987 630.748L630.748 616.986C634.549 613.185 634.549 607.022 630.747 603.221ZM351.334 497.334C270.825 497.334 205.334 431.843 205.334 351.334C205.334 270.825 270.825 205.334 351.334 205.334C431.843 205.334 497.334 270.825 497.334 351.334C497.334 431.843 431.843 497.334 351.334 497.334Z" fill="white"/>
</svg>
